<?xml version="1.0" encoding="UTF-8"?>
<svg width="70px" height="70px" viewBox="0 0 70 70" version="1.1" xmlns="http://www.w3.org/2000/svg" xmlns:xlink="http://www.w3.org/1999/xlink">
    <!-- Generator: Sketch 55.2 (78181) - https://sketchapp.com -->
    <title>logo</title>
    <desc>Created with Sketch.</desc>
    <g id="Page-1" stroke="none" stroke-width="1" fill="none" fill-rule="evenodd">
        <g id="01_1_CMG_home_neutral_desktop" transform="translate(-40.000000, -25.000000)">
            <g id="header">
                <g id="logo" transform="translate(40.000000, 25.000000)">
                    <rect id="Rectangle" fill="#DA2128" x="0" y="0" width="70" height="70"></rect>
                    <path d="M58.9507299,21.459854 C60.7071168,21.459854 61.7609489,20.1505474 61.7609489,17.4361314 C61.7609489,14.7217153 60.6432482,13.4124039 58.9507299,13.4124039 C58.9507299,13.4124039 56.0766423,13.3804745 56.0766423,16.9890511 C56.0766423,20.5976277 57.1943431,21.459854 58.9507299,21.459854 Z M20.0016058,19.0328467 L20.0016058,14.8921168 L14.1256934,14.8921168 C14.1256934,12.3373723 11.6772263,12.4543796 11.6772263,12.4543796 C8.67540146,12.4543796 8.78193431,16.265292 8.78193431,16.265292 L8.78193431,17.6704015 C8.78193431,18.0962774 8.71806569,21.6941241 11.5070803,21.6941241 C14.2958394,21.6941241 14.1681022,19.0328467 14.1681022,19.0328467 L20.0016058,19.0328467 Z M62.3677007,8.65419708 L68.4671533,8.65419708 L68.4671533,25.3558394 C68.4671533,33.7067883 60.34,33.2543431 60.34,33.2543431 L59.1104015,33.2543431 C50.2538686,33.2543431 50.2753285,28.0171168 50.2753285,28.0171168 L57.1463139,28.0171168 C57.1463139,28.0171168 57.0346715,29.2306204 59.4085401,29.2306204 C61.9208759,29.2306204 61.7928832,27.0376277 61.7928832,27.0376277 L61.7928832,24.5682117 C60.749781,26.4628102 57.0454015,26.3989416 57.0454015,26.3989416 C51.3610949,26.3989416 49.8921168,21.9708029 49.8921168,21.9708029 L49.8921168,26.3989416 L43.1008394,26.3989416 L43.1008394,15.8182117 C43.1008394,15.605146 43.1033942,13.1357299 40.8015693,13.1357299 C38.2468248,13.1357299 38.3850365,15.9671533 38.3850365,15.9671533 L38.3850365,26.4096715 L31.6042336,26.4096715 L31.6042336,26.3989416 L31.6042336,15.8182117 C31.6042336,15.605146 31.6067883,13.1357299 29.3049635,13.1357299 C26.750219,13.1357299 26.8886861,15.9671533 26.8886861,15.9671533 L26.8886861,26.4096715 L20.0626642,26.4096715 L20.0626642,22.7691606 C17.8272628,26.7290146 12.6779197,26.7290146 12.6779197,26.7290146 L10.9215328,26.7290146 C10.9215328,26.7290146 1.78832117,26.8886861 1.78832117,16.9571168 C1.78832117,7.47262774 10.7937956,7.40875912 10.7937956,7.40875912 L12.3905109,7.40875912 C17.8193431,7.40875912 20.0626642,11.2408759 20.0626642,11.2408759 L20.0626642,7.82390511 L26.4096715,7.82390511 L26.4096715,10.4744526 C26.4096715,10.4744526 28.4854015,7.40875912 32.2217153,7.40875912 C35.9580292,7.40875912 37.3312044,10.5702555 37.3312044,10.5702555 C37.3312044,10.5702555 39.2791971,7.40875912 43.4945255,7.40875912 C49.8494526,7.40875912 49.8813869,12.8056569 49.8813869,12.8056569 C50.4242701,11.4324818 52.4361314,8.23905109 56.5237226,8.23905109 C60.6113139,8.23905109 62.3677007,10.8576642 62.3677007,10.8576642 L62.3677007,8.65419708 Z M14.6578467,42.1053832 C14.6578467,42.1053832 14.7536496,41.3867336 13.8433942,41.3867336 C12.9333942,41.3867336 12.8375912,42.3769526 12.8375912,42.7601642 C12.8375912,43.1433759 12.9972628,44.0533759 13.8753285,44.0533759 C14.7536496,44.0533759 14.7058759,43.2711131 14.7058759,43.2711131 L15.8074818,43.2869526 C15.8074818,43.2869526 15.8555109,45.0594343 13.8275547,45.0594343 C11.7995985,45.0594343 11.7037956,43.0156387 11.7037956,43.0156387 L11.7037956,42.6802007 C11.7037956,42.1692518 11.9114964,40.4606387 13.8594891,40.4606387 C15.8074818,40.4606387 15.8074818,42.1053832 15.8074818,42.1053832 L14.6578467,42.1053832 Z M19.4639599,40.4607664 L22.9447993,40.4607664 L22.9447993,41.3710219 L20.5977555,41.3710219 L20.5977555,42.2651825 L22.7531934,42.2651825 L22.7531934,43.1751825 L20.6135949,43.1751825 L20.6135949,43.9257664 L23.0406022,43.9257664 L23.0406022,45.0593066 L19.4639599,45.0593066 L19.4639599,40.4607664 Z M35.5855474,47.5593029 L39.0663869,47.5593029 L39.0663869,48.4695584 L36.7193431,48.4695584 L36.7193431,49.363719 L38.874781,49.363719 L38.874781,50.273719 L36.7351825,50.273719 L36.7351825,51.0243029 L39.1621898,51.0243029 L39.1621898,52.1578431 L35.5855474,52.1578431 L35.5855474,47.5593029 Z M26.665146,45.0593066 L26.665146,40.524635 L27.8467153,40.524635 L29.3956569,43.1590876 L29.3956569,40.4607664 L30.4333942,40.4607664 L30.4333942,45.0593066 L29.2518248,45.0593066 L27.8308759,42.3129562 L27.8308759,45.0593066 L26.665146,45.0593066 Z M54.7885401,52.1578431 L54.7885401,47.6231715 L55.9701095,47.6231715 L57.5190511,50.2576241 L57.5190511,47.5593029 L58.5567883,47.5593029 L58.5567883,52.1578431 L57.375219,52.1578431 L55.9542701,49.4114927 L55.9542701,52.1578431 L54.7885401,52.1578431 Z M33.9461679,40.4607664 L37.6824818,40.4607664 L37.6824818,41.5306934 L36.3892701,41.5306934 L36.3892701,45.0593066 L35.259562,45.0593066 L35.259562,41.5306934 L33.9461679,41.5306934 L33.9461679,40.4607664 Z M42.5751752,47.5593029 L46.3114891,47.5593029 L46.3114891,48.6292299 L45.0182774,48.6292299 L45.0182774,52.1578431 L43.8885693,52.1578431 L43.8885693,48.6292299 L42.5751752,48.6292299 L42.5751752,47.5593029 Z M43.3188869,42.4566606 C43.6862591,42.4566606 43.8617701,42.2489599 43.8617701,41.9137774 C43.8617701,41.4347628 43.302792,41.3708942 43.302792,41.3708942 L42.3447628,41.3708942 L42.3447628,42.4566606 L43.3188869,42.4566606 Z M44.9636314,44.4685219 C44.9636314,44.6601277 45.1871715,45.0594343 45.1871715,45.0594343 L44.1014051,45.0594343 C43.8617701,45.0594343 43.8617701,44.6281934 43.8617701,44.6281934 L43.8617701,43.9097993 C43.8617701,43.4785584 43.3508212,43.3988504 43.3508212,43.3988504 L42.3608577,43.3988504 L42.3608577,45.0594343 L41.2431569,45.0594343 L41.2431569,40.4606387 L43.5265876,40.4606387 C44.2610766,40.4606387 44.9794708,40.9557482 44.9794708,41.7699453 C44.9794708,42.5843978 44.372719,42.9837044 44.372719,42.9837044 C45.0913686,43.1592153 44.9636314,44.2769161 44.9636314,44.4685219 Z M22.6627555,49.5551971 C23.0301277,49.5551971 23.2056387,49.3474964 23.2056387,49.0123139 C23.2056387,48.5332993 22.6466606,48.4694307 22.6466606,48.4694307 L21.6886314,48.4694307 L21.6886314,49.5551971 L22.6627555,49.5551971 Z M24.3075,51.5670584 C24.3075,51.7586642 24.5310401,52.1579708 24.5310401,52.1579708 L23.4452737,52.1579708 C23.2056387,52.1579708 23.2056387,51.7267299 23.2056387,51.7267299 L23.2056387,51.0083358 C23.2056387,50.5770949 22.6946898,50.4973869 22.6946898,50.4973869 L21.7047263,50.4973869 L21.7047263,52.1579708 L20.5870255,52.1579708 L20.5870255,47.5591752 L22.8704562,47.5591752 C23.6049453,47.5591752 24.3233394,48.0542847 24.3233394,48.8684818 C24.3233394,49.6829343 23.7165876,50.0822409 23.7165876,50.0822409 C24.4352372,50.2577518 24.3075,51.3754526 24.3075,51.5670584 Z M28.2458942,56.3233796 C28.6132664,56.3233796 28.7887774,56.1156788 28.7887774,55.7804964 C28.7887774,55.3014818 28.2297993,55.2376131 28.2297993,55.2376131 L27.2717701,55.2376131 L27.2717701,56.3233796 L28.2458942,56.3233796 Z M29.8906387,58.3352409 C29.8906387,58.5268467 30.1141788,58.9261533 30.1141788,58.9261533 L29.0284124,58.9261533 C28.7887774,58.9261533 28.7887774,58.4949124 28.7887774,58.4949124 L28.7887774,57.7765182 C28.7887774,57.3452774 28.2778285,57.2655693 28.2778285,57.2655693 L27.287865,57.2655693 L27.287865,58.9261533 L26.1701642,58.9261533 L26.1701642,54.3273577 L28.4535949,54.3273577 C29.1880839,54.3273577 29.9064781,54.8224672 29.9064781,55.6366642 C29.9064781,56.4511168 29.2997263,56.8504234 29.2997263,56.8504234 C30.0183759,57.0259343 29.8906387,58.143635 29.8906387,58.3352409 Z M49.9999015,43.3188869 L50.9630401,43.3188869 L50.4960328,41.8338139 L49.9999015,43.3188869 Z M51.5100109,45.0594343 L51.2491715,44.2291423 L49.6958869,44.2291423 L49.4184416,45.0594343 L48.2368723,45.0594343 L49.8974562,40.4606387 L50.9832226,40.4606387 L52.7554489,45.0594343 L51.5100109,45.0594343 Z M14.5404562,50.4174234 L15.5035949,50.4174234 L15.0365876,48.9323504 L14.5404562,50.4174234 Z M16.0505657,52.1579708 L15.7897263,51.3276788 L14.2364416,51.3276788 L13.9589964,52.1579708 L12.777427,52.1579708 L14.4380109,47.5591752 L15.5237774,47.5591752 L17.2960036,52.1579708 L16.0505657,52.1579708 Z M56.0022993,40.4607664 L57.1519343,40.4607664 L57.1519343,43.9628102 L59.2381387,43.9628102 L59.2381387,45.0593066 L56.0022993,45.0593066 L56.0022993,40.4607664 Z M4.35379562,39.8754745 L4.35379562,39.0878467 L66.4340876,39.0878467 L66.4340876,39.8754745 L4.35379562,39.8754745 Z M4.35379562,46.8371533 L4.35379562,46.0495255 L66.4340876,46.0495255 L66.4340876,46.8371533 L4.35379562,46.8371533 Z M4.35379562,53.8627007 L4.35379562,53.075073 L66.4340876,53.075073 L66.4340876,53.8627007 L4.35379562,53.8627007 Z M4.35379562,60.9094526 L4.35379562,60.1218248 L66.4340876,60.1218248 L66.4340876,60.9094526 L4.35379562,60.9094526 Z M30.7687044,52.0369526 L29.6091058,50.2269161 L29.1719891,50.6992883 L29.1719891,52.157792 L28.0701277,52.157792 L28.0701277,47.5592518 L29.1719891,47.5592518 L29.1719891,49.1776825 L30.5290693,47.5592518 L32.0780109,47.5592518 L30.4151277,49.3560036 L32.1579745,52.0369526 L30.7687044,52.0369526 Z M49.7536496,52.1579197 L49.7536496,47.5593796 L50.935219,47.5593796 L50.935219,52.1579197 L49.7536496,52.1579197 Z M64.5232664,49.6099453 L66.4339599,49.6099453 L66.4339599,52.0369526 L65.5770985,52.0369526 L65.5770985,51.557938 C65.5770985,51.557938 65.3535584,52.157792 64.3635949,52.157792 C62.5752737,52.157792 62.2079015,50.6957117 62.2079015,49.8585219 C62.2079015,49.0213321 62.6549818,47.4703467 64.4113686,47.4703467 C66.1680109,47.4703467 66.3596168,49.162865 66.3596168,49.162865 L65.2577555,49.162865 C65.2577555,49.162865 65.2099818,48.4922445 64.3635949,48.4922445 C63.517208,48.4922445 63.3736314,49.3225365 63.3736314,49.8585219 C63.3736314,50.3945073 63.6610401,51.1588869 64.3955292,51.1588869 C65.1300182,51.1588869 65.3535584,50.4563321 65.3535584,50.4563321 L64.5232664,50.4563321 L64.5232664,49.6099453 Z M20.6481606,56.4226825 L22.558854,56.4226825 L22.558854,58.8496898 L21.7019927,58.8496898 L21.7019927,58.3706752 C21.7019927,58.3706752 21.4784526,58.9705292 20.4884891,58.9705292 C18.7001679,58.9705292 18.3327956,57.5084489 18.3327956,56.6712591 C18.3327956,55.8340693 18.7798759,54.2830839 20.5362628,54.2830839 C22.2929051,54.2830839 22.4845109,55.9756022 22.4845109,55.9756022 L21.3826496,55.9756022 C21.3826496,55.9756022 21.3348759,55.3049818 20.4884891,55.3049818 C19.6421022,55.3049818 19.4985255,56.1352737 19.4985255,56.6712591 C19.4985255,57.2072445 19.7859343,57.9716241 20.5204234,57.9716241 C21.2549124,57.9716241 21.4784526,57.2690693 21.4784526,57.2690693 L20.6481606,57.2690693 L20.6481606,56.4226825 Z M8.67016423,47.5593029 L9.30885036,47.5593029 L9.30885036,52.0528431 L8.28695255,52.0528431 L8.28695255,49.2995949 L7.42472628,52.0528431 L6.59443431,52.0528431 L5.6044708,48.8826606 L5.6044708,52.0528431 L4.58257299,52.0528431 L4.58257299,47.5593029 L5.33290146,47.5593029 L5.6044708,47.5593029 L6.22706204,47.5593029 L7.00958029,50.4561277 L7.77600365,47.5593029 L8.28695255,47.5593029 L8.67016423,47.5593029 Z M43.2151131,58.9746934 C41.1792372,58.9746934 41.2431058,57.3381241 41.2431058,57.3381241 L41.2431058,54.4001679 L42.3927409,54.4001679 L42.3927409,56.9868467 C42.3927409,56.9868467 42.3608066,57.9448759 43.2151131,57.9448759 C44.0694197,57.9448759 44.0374854,56.9868467 44.0374854,56.9868467 L44.0374854,54.4001679 L45.1871204,54.4001679 L45.1871204,57.3381241 C45.1871204,57.3381241 45.2509891,58.9746934 43.2151131,58.9746934 Z M50.8793467,56.4997847 C50.8793467,56.4997847 51.3982153,56.4438358 51.3982153,55.9170474 C51.3982153,55.3900036 51.0231788,55.2543467 50.8553321,55.2543467 L49.9772664,55.2543467 L49.9772664,56.4997847 L50.8793467,56.4997847 Z M51.0551131,54.3522664 C51.3105876,54.3522664 52.436208,54.5356971 52.436208,55.9088723 C52.436208,57.2823029 51.3105876,57.306062 51.3105876,57.306062 L49.9851861,57.306062 L49.9851861,58.9748212 L48.8355511,58.9748212 L48.8355511,54.3522664 L51.0551131,54.3522664 Z M35.5430109,57.9752263 C36.6269891,57.9752263 36.5437044,56.6623431 36.5437044,56.6623431 L36.5437044,56.5351168 C36.5437044,55.2490584 35.5430109,55.2781825 35.5430109,55.2781825 C35.5430109,55.2781825 34.542062,55.2490584 34.542062,56.5351168 L34.542062,56.6623431 C34.542062,56.6623431 34.4590328,57.9752263 35.5430109,57.9752263 Z M37.6189964,56.8005547 C37.6189964,56.8005547 37.7252737,58.9261022 35.6919526,58.9261022 L35.5430109,58.9261022 L35.3940693,58.9261022 C33.3607482,58.9261022 33.467281,56.8005547 33.467281,56.8005547 L33.467281,56.4278175 C33.467281,54.373292 35.4684124,54.327562 35.4684124,54.327562 L35.5430109,54.327562 L35.6176095,54.327562 C35.6176095,54.327562 37.6189964,54.373292 37.6189964,56.4278175 L37.6189964,56.8005547 Z" id="Combined-Shape" fill="#FFFFFF"></path>
                </g>
            </g>
        </g>
    </g>
</svg>