<svg xmlns="http://www.w3.org/2000/svg" width="395" height="84" viewBox="0 0 395 84">
  <g id="Group_2041" data-name="Group 2041" transform="translate(-92 -42)">
    <rect id="Rectangle_1770" data-name="Rectangle 1770" width="395" height="84" transform="translate(92 42)" fill="none" opacity="0.6"/>
    <g id="Group_2033" data-name="Group 2033" transform="translate(57.198 60.457)">
      <g id="Group_2031" data-name="Group 2031" transform="translate(64.802 10.006)">
        <path id="Path_1277" data-name="Path 1277" d="M88.969,32.434l.15-.237-3.988-2.871-.17.265a7.14,7.14,0,0,1-2.793,2.558,8.646,8.646,0,0,1-3.965.878,7.854,7.854,0,0,1-3.276-.674,7.732,7.732,0,0,1-2.565-1.873A8.7,8.7,0,0,1,70.671,27.6a11.382,11.382,0,0,1,0-7.365,8.761,8.761,0,0,1,1.711-2.9,8.029,8.029,0,0,1,2.586-1.909,7.6,7.6,0,0,1,3.238-.691,8.283,8.283,0,0,1,3.858.878,7.218,7.218,0,0,1,2.759,2.559l.169.265.255-.183,3.469-2.488.234-.168-.16-.24a11.718,11.718,0,0,0-4.4-3.971,13.965,13.965,0,0,0-11.435-.306,13.388,13.388,0,0,0-4.264,2.938,13.692,13.692,0,0,0-2.848,4.424A14.533,14.533,0,0,0,64.8,23.935a15.029,15.029,0,0,0,1,5.541,13.342,13.342,0,0,0,2.778,4.39,12.464,12.464,0,0,0,4.235,2.872,13.849,13.849,0,0,0,5.353,1.022,14.311,14.311,0,0,0,6.351-1.38A10.792,10.792,0,0,0,88.969,32.434Z" transform="translate(-64.802 -10.006)" fill="#fff"/>
        <path id="Path_1278" data-name="Path 1278" d="M171.575,38.3V33.952H161.2V26.909h9.286V22.564H161.2V16.152h10.022V11.806H156.4V38.3Z" transform="translate(-124.304 -11.175)" fill="#fff"/>
        <path id="Path_1279" data-name="Path 1279" d="M314.2,16.152V38.3h5.081V16.152h6.9V11.806H307.3v4.345Z" transform="translate(-222.326 -11.175)" fill="#fff"/>
        <path id="Path_1280" data-name="Path 1280" d="M395.7,38.306h5.384l-5.449-10.1A8.341,8.341,0,0,0,401.3,20.17c0-5-3.7-8.355-9.2-8.355H381.7V38.306h4.8v-9.52h4.167Zm.686-18.033c0,1.992-1.191,4.12-4.535,4.12H386.5V16.159h5.352C395.194,16.159,396.386,18.284,396.386,20.274Z" transform="translate(-270.655 -11.181)" fill="#fff"/>
        <path id="Path_1281" data-name="Path 1281" d="M474.984,38.3h5.343L469.644,11.806h-4.677L454.249,38.3h5.239l2.243-5.957h11.011Zm-3.9-10.3h-7.689l3.844-10.21Z" transform="translate(-317.783 -11.175)" fill="#fff"/>
        <path id="Path_1282" data-name="Path 1282" d="M553.142,33.943V11.793H548.06v26.5H565.29V33.943Z" transform="translate(-378.722 -11.167)" fill="#fff"/>
        <path id="Path_1283" data-name="Path 1283" d="M240.125,11.806V30.022L227.191,11.806H222.5V38.3h4.906V20.082L240.339,38.3h4.692V11.806Z" transform="translate(-167.241 -11.175)" fill="#fff"/>
      </g>
      <g id="Group_2032" data-name="Group 2032" transform="translate(256.468 10.006)">
        <path id="Path_1284" data-name="Path 1284" d="M898.546,11.806V27a8.188,8.188,0,0,1-1.561,5.346,6.033,6.033,0,0,1-8.686.019A8.3,8.3,0,0,1,886.772,27V11.806h-5.081V27.242a14.625,14.625,0,0,0,.752,4.829,10.451,10.451,0,0,0,2.183,3.7,9.469,9.469,0,0,0,3.473,2.352,12.227,12.227,0,0,0,4.542.81,11.916,11.916,0,0,0,4.51-.828,9.838,9.838,0,0,0,3.486-2.367,10.518,10.518,0,0,0,2.218-3.7,14.2,14.2,0,0,0,.771-4.8V11.806Z" transform="translate(-787.112 -11.175)" fill="#aaa"/>
        <path id="Path_1285" data-name="Path 1285" d="M804.324,14.071a14.115,14.115,0,0,0-4.4-2.972,13.5,13.5,0,0,0-5.392-1.093,13.716,13.716,0,0,0-5.443,1.093,14.342,14.342,0,0,0-4.455,2.988,13.987,13.987,0,0,0-3.008,4.439,13.887,13.887,0,0,0,0,10.8,14.116,14.116,0,0,0,2.971,4.4,13.869,13.869,0,0,0,4.4,2.954,14.073,14.073,0,0,0,10.834-.018,14.491,14.491,0,0,0,4.454-2.969,13.788,13.788,0,0,0,3.009-4.423,13.887,13.887,0,0,0,0-10.8A14.116,14.116,0,0,0,804.324,14.071ZM803.133,23.9a9.266,9.266,0,0,1-.678,3.548,9.445,9.445,0,0,1-1.868,2.9,8.72,8.72,0,0,1-2.762,1.965,8.326,8.326,0,0,1-6.727,0,8.72,8.72,0,0,1-2.762-1.965,9.424,9.424,0,0,1-1.868-2.9,9.248,9.248,0,0,1-.678-3.548,9.426,9.426,0,0,1,.679-3.55,9,9,0,0,1,4.632-4.887,8.144,8.144,0,0,1,6.723,0,9,9,0,0,1,4.632,4.887A9.429,9.429,0,0,1,803.133,23.9Z" transform="translate(-721.4 -10.006)" fill="#aaa"/>
        <path id="Path_1286" data-name="Path 1286" d="M626.253,22.41v4.345h6.82a8.258,8.258,0,0,1-.778,2.4,7.136,7.136,0,0,1-1.58,2.069,6.909,6.909,0,0,1-2.234,1.327,8.087,8.087,0,0,1-2.805.472,8.458,8.458,0,0,1-3.436-.693,8.341,8.341,0,0,1-2.724-1.912,8.98,8.98,0,0,1-1.814-2.9,10.425,10.425,0,0,1,0-7.315,8.983,8.983,0,0,1,1.814-2.9,8.148,8.148,0,0,1,2.722-1.893,8.658,8.658,0,0,1,3.439-.677,8.185,8.185,0,0,1,3.924.964,8.878,8.878,0,0,1,3.085,2.833l.172.249.246-.177,3.469-2.488.228-.164-.15-.238a11.858,11.858,0,0,0-4.564-4.222,13.56,13.56,0,0,0-6.376-1.489,14.284,14.284,0,0,0-5.51,1.056A13.378,13.378,0,0,0,615.792,14a13.96,13.96,0,0,0-4.011,9.934,14.157,14.157,0,0,0,1.057,5.494,13.367,13.367,0,0,0,2.921,4.372,13.653,13.653,0,0,0,4.405,2.9,14.3,14.3,0,0,0,5.511,1.056,13.631,13.631,0,0,0,5.266-.987A11.6,11.6,0,0,0,635,33.967a12.578,12.578,0,0,0,2.6-4.359,16.644,16.644,0,0,0,.911-5.637V22.41Z" transform="translate(-611.781 -10.006)" fill="#aaa"/>
        <path id="Path_1287" data-name="Path 1287" d="M981,11.806h-10.4V38.3h4.8v-9.52H981a9.408,9.408,0,0,0,6.831-2.5,8.516,8.516,0,0,0,2.371-6.113C990.2,15.164,986.507,11.806,981,11.806Zm-5.6,4.344h5.352c3.344,0,4.535,2.126,4.535,4.114s-1.191,4.12-4.535,4.12h-5.352Z" transform="translate(-844.871 -11.175)" fill="#aaa"/>
        <path id="Path_1288" data-name="Path 1288" d="M728.13,20.16c0-5-3.7-8.355-9.2-8.355h-10.4V38.3h4.8v-9.52H717.5l5.034,9.52h5.384l-5.449-10.1A8.34,8.34,0,0,0,728.13,20.16Zm-14.8-4.011h5.352c3.344,0,4.535,2.125,4.535,4.115s-1.191,4.12-4.535,4.12h-5.352Z" transform="translate(-674.63 -11.175)" fill="#aaa"/>
      </g>
    </g>
  </g>
</svg>
